<svg xmlns="http://www.w3.org/2000/svg" viewBox="0 0 70.43 16.15"><defs><style>.cls-1{fill:#f6f4f4;}</style></defs><title>logo</title><g id="레이어_2" data-name="레이어 2"><path class="cls-1" d="M141.08,56.79l-4.21,16.15h-4.76l-2.58-10.63-2.67,10.63H122.1L118,56.79h4.21l2.32,11.76,2.88-11.76h4.32l2.76,11.76,2.35-11.76Z" transform="translate(-118.01 -56.79)"/><path class="cls-1" d="M157,56.79V72.94h-3.93V66.29H147v6.65h-3.94V56.79H147v6.33h6.12V56.79Z" transform="translate(-118.01 -56.79)"/><path class="cls-1" d="M169.92,70.09h-6l-1,2.85h-4.12l5.84-16.15h4.56l5.84,16.15h-4.17Zm-1-3-2-5.91-2,5.91Z" transform="translate(-118.01 -56.79)"/><path class="cls-1" d="M188.43,56.79v3.15h-4.27v13h-3.94v-13h-4.28V56.79Z" transform="translate(-118.01 -56.79)"/></g></svg>