<svg xmlns="http://www.w3.org/2000/svg" viewBox="0 0 300 130"><defs><style>.cls-1{fill:#282828;}.cls-2{fill:#f6f4f4;}</style></defs><title>navLogo</title><g id="레이어_2" data-name="레이어 2"><rect class="cls-1" width="300" height="130"/><path class="cls-2" d="M118.75,43.91,107.77,86H95.35L88.63,58.31,81.67,86H69.25L58.57,43.91h11l6.06,30.66,7.5-30.66H94.39l7.2,30.66,6.12-30.66Z" transform="translate(-0.43 0.03)"/><path class="cls-2" d="M160.39,43.91V86H150.13V68.69h-16V86H123.91V43.91h10.26v16.5h16V43.91Z" transform="translate(-0.43 0.03)"/><path class="cls-2" d="M194,78.59H178.27L175.75,86H165l15.24-42.12h11.88L207.37,86H196.51Zm-2.64-7.92-5.22-15.42L181,70.67Z" transform="translate(-0.43 0.03)"/><path class="cls-2" d="M242.29,43.91v8.22H231.13V86H220.87V52.13H209.71V43.91Z" transform="translate(-0.43 0.03)"/></g></svg>