<svg id="Capa_1" data-name="Capa 1" xmlns="http://www.w3.org/2000/svg" viewBox="0 0 24 24"><defs><style>.cls-1{fill:#fff;}</style></defs><title>pause</title><path class="cls-1" d="M136,148a12,12,0,1,0-12-12A12,12,0,0,0,136,148Zm0-22.08A10.08,10.08,0,1,1,125.9,136,10.1,10.1,0,0,1,136,125.9Z" transform="translate(-123.98 -123.98)"/><path class="cls-1" d="M133.75,141.64a1.2,1.2,0,0,0,1.2-1.2v-9.12a1.2,1.2,0,0,0-2.4,0v9.12A1.2,1.2,0,0,0,133.75,141.64Z" transform="translate(-123.98 -123.98)"/><path class="cls-1" d="M138.55,141.64a1.2,1.2,0,0,0,1.2-1.2v-9.12a1.2,1.2,0,0,0-2.4,0v9.12A1.2,1.2,0,0,0,138.55,141.64Z" transform="translate(-123.98 -123.98)"/></svg>