<svg id="Capa_1" data-name="Capa 1" xmlns="http://www.w3.org/2000/svg" viewBox="0 0 24 24"><defs><style>.cls-1{fill:#fff;}</style></defs><title>play</title><path class="cls-1" d="M136,148a12,12,0,1,0-12-12A12,12,0,0,0,136,148Zm10.08-12A10.08,10.08,0,1,1,136,125.9,10.1,10.1,0,0,1,146.06,136Z" transform="translate(-123.98 -123.98)"/><path class="cls-1" d="M133.89,142.07a1.82,1.82,0,0,0,.72.15,1.92,1.92,0,0,0,1.36-.57l4.32-4.32a1.92,1.92,0,0,0,0-2.71L136,130.3a1.87,1.87,0,0,0-1.35-.56,1.78,1.78,0,0,0-.72.14,1.91,1.91,0,0,0-1.17,1.78v8.64A1.91,1.91,0,0,0,133.89,142.07Zm.75-10.27v-.14L139,136l-4.32,4.32Z" transform="translate(-123.98 -123.98)"/></svg>